<?xml version="1.0" standalone="no"?>
<svg version="1.0" xmlns="http://www.w3.org/2000/svg"
 width="40.000000pt" height="40.000000pt" viewBox="0 0 40.000000 40.000000"
 preserveAspectRatio="xMidYMid meet">

<g transform="translate(0.000000,40.000000) scale(0.100000,-0.100000)"
fill="#000000" stroke="none">
<path d="M45 356 c-27 -27 -29 -42 -25 -186 1 -52 7 -93 16 -107 18 -29 72
-43 164 -42 155 1 183 32 178 196 -3 85 -7 107 -24 130 -21 28 -22 28 -153 31
-128 3 -132 2 -156 -22z m135 -93 c0 -3 -8 -15 -17 -25 -23 -26 -6 -54 31 -50
28 3 36 -12 10 -22 -25 -10 -42 -7 -58 10 -21 20 -20 53 1 76 16 18 33 24 33
11z m58 -39 c29 -20 28 -55 -3 -84 -28 -26 -36 -8 -9 21 25 28 10 53 -26 45
-32 -6 -38 2 -18 22 16 16 29 15 56 -4z"/>
</g>
</svg>
